<?xml version="1.0" encoding="UTF-8" standalone="no"?>
<svg
   width="100%"
   height="100%"
   viewBox="0 0 743 341"
   xml:space="preserve"
   style="fill-rule:evenodd;clip-rule:evenodd;stroke-linecap:round;stroke-linejoin:round;stroke-miterlimit:1.5;"
   version="1.1"
   id="svg53"
   sodipodi:docname="BAC-Logo-SVG.svg"
   inkscape:export-filename="BAC_Logo_Square.png"
   inkscape:export-xdpi="96"
   inkscape:export-ydpi="96"
   inkscape:version="1.4.3 (0d15f75, 2025-12-25)"
   xmlns:inkscape="http://www.inkscape.org/namespaces/inkscape"
   xmlns:sodipodi="http://sodipodi.sourceforge.net/DTD/sodipodi-0.dtd"
   xmlns="http://www.w3.org/2000/svg"
   xmlns:svg="http://www.w3.org/2000/svg"><defs
     id="defs53" /><sodipodi:namedview
     id="namedview53"
     pagecolor="#ffffff"
     bordercolor="#000000"
     borderopacity="0.25"
     inkscape:showpageshadow="2"
     inkscape:pageopacity="0.0"
     inkscape:pagecheckerboard="0"
     inkscape:deskcolor="#d1d1d1"
     inkscape:export-bgcolor="#ffffff00"
     inkscape:zoom="1.7111437"
     inkscape:cx="431.87489"
     inkscape:cy="231.42416"
     inkscape:window-width="2337"
     inkscape:window-height="1262"
     inkscape:window-x="1066"
     inkscape:window-y="40"
     inkscape:window-maximized="0"
     inkscape:current-layer="svg53" /><g
     id="g2"
     inkscape:label="BAC Initials"><path
       d="M415.609,179.246c-0.848,0.686 -1.807,1.282 -2.875,1.787c-0.911,0.47 -2.026,0.885 -3.346,1.246c-1.319,0.361 -2.812,0.542 -4.477,0.542c-2.293,-0 -4.484,-0.425 -6.574,-1.273c-2.089,-0.849 -3.919,-2.086 -5.49,-3.711c-1.57,-1.625 -2.827,-3.62 -3.77,-5.985c-0.942,-2.365 -1.413,-5.065 -1.413,-8.098c-0,-3.033 0.463,-5.733 1.39,-8.098c0.927,-2.365 2.183,-4.36 3.77,-5.985c1.586,-1.625 3.416,-2.862 5.49,-3.711c2.073,-0.848 4.273,-1.273 6.597,-1.273c1.697,0 3.181,0.199 4.454,0.596c1.272,0.397 2.364,0.831 3.275,1.3c1.037,0.578 1.948,1.21 2.733,1.896l0,6.608c-0.785,-0.939 -1.696,-1.787 -2.733,-2.546c-0.911,-0.65 -2.011,-1.245 -3.299,-1.787c-1.288,-0.542 -2.765,-0.813 -4.43,-0.813c-1.57,0 -3.031,0.307 -4.382,0.921c-1.351,0.614 -2.521,1.508 -3.511,2.681c-0.99,1.174 -1.767,2.619 -2.333,4.334c-0.565,1.715 -0.848,3.674 -0.848,5.877c0,2.203 0.283,4.162 0.848,5.877c0.566,1.715 1.343,3.16 2.333,4.333c0.99,1.174 2.16,2.068 3.511,2.682c1.351,0.613 2.812,0.92 4.382,0.92c1.665,0 3.221,-0.261 4.666,-0.785c1.445,-0.524 2.702,-1.092 3.77,-1.706c1.256,-0.722 2.403,-1.571 3.44,-2.546l-1.178,6.717Z"
       style="fill:#9f3439;fill-rule:nonzero;"
       id="path1" /><path
       d="M344.611,162.833c1.444,0.361 2.744,0.903 3.9,1.625c0.975,0.65 1.869,1.544 2.681,2.681c0.813,1.138 1.219,2.609 1.219,4.415c-0,2.094 -0.37,3.81 -1.111,5.146c-0.74,1.336 -1.733,2.392 -2.979,3.168c-1.246,0.777 -2.681,1.319 -4.306,1.625c-1.625,0.307 -3.34,0.461 -5.146,0.461l-3.358,-0c-1.192,-0 -2.293,-0.018 -3.304,-0.054c-1.192,-0.036 -2.366,-0.072 -3.521,-0.109l-0,-36.075c1.3,0 2.546,-0.018 3.737,-0.054c1.048,-0.036 2.14,-0.063 3.277,-0.081c1.138,-0.018 2.158,-0.027 3.061,-0.027c1.517,-0 3.024,0.108 4.523,0.325c1.498,0.217 2.844,0.641 4.035,1.273c1.192,0.632 2.167,1.535 2.925,2.708c0.759,1.174 1.138,2.699 1.138,4.577c-0,1.842 -0.361,3.286 -1.084,4.334c-0.722,1.047 -1.498,1.859 -2.329,2.437c-0.975,0.65 -2.094,1.12 -3.358,1.408l-0,0.217Zm0.975,8.233c-0,-1.263 -0.181,-2.275 -0.542,-3.033c-0.361,-0.758 -0.866,-1.345 -1.516,-1.76c-0.65,-0.416 -1.427,-0.686 -2.33,-0.813c-0.902,-0.126 -1.914,-0.189 -3.033,-0.189l-2.762,-0l-0,11.7c0.325,0.036 0.839,0.054 1.543,0.054l1.815,-0c0.939,-0 1.823,-0.063 2.654,-0.19c0.831,-0.126 1.553,-0.406 2.167,-0.839c0.614,-0.434 1.101,-1.039 1.462,-1.815c0.361,-0.776 0.542,-1.815 0.542,-3.115Zm-0.975,-16.195c-0,-0.939 -0.145,-1.707 -0.433,-2.303c-0.289,-0.595 -0.714,-1.056 -1.273,-1.381c-0.56,-0.325 -1.246,-0.541 -2.059,-0.65c-0.812,-0.108 -1.742,-0.162 -2.789,-0.162c-0.181,-0 -0.416,0.009 -0.704,0.027c-0.289,0.018 -0.578,0.027 -0.867,0.027l-1.083,-0l-0,10.292l2.762,-0c0.867,-0 1.697,-0.082 2.492,-0.244c0.794,-0.163 1.48,-0.461 2.058,-0.894c0.578,-0.433 1.038,-1.029 1.381,-1.787c0.343,-0.759 0.515,-1.734 0.515,-2.925Z"
       style="fill:#9f3439;fill-rule:nonzero;"
       id="path2" /><path
       d="M391.616,209.56l-7.482,-20.25l-26.362,-0c-1.108,3 -2.296,6.125 -3.563,9.375c-1.266,3.25 -2.691,6.875 -4.275,10.875l-15.437,-0l35.981,-87l2.375,-0l35.031,87l-16.268,-0Zm-20.544,-58.25c-0.158,0.916 -0.594,2.5 -1.306,4.75c-0.634,1.916 -1.564,4.666 -2.791,8.25c-1.227,3.583 -2.949,8.375 -5.166,14.375l18.525,-0c-2.137,-6.084 -3.8,-10.938 -4.987,-14.563c-1.188,-3.625 -2.058,-6.396 -2.613,-8.312c-0.712,-2.167 -1.108,-3.667 -1.187,-4.5l-0.475,-0Z"
       style="fill:#9f3439;fill-rule:nonzero;"
       id="path3" /></g><rect
     x="317.39401"
     y="239.77499"
     width="11.106"
     height="7.9510002"
     style="display:none;fill:#9f3439"
     id="rect3" /><rect
     x="414.00299"
     y="237.99699"
     width="11.066"
     height="10.497"
     style="display:none;fill:#9f3439"
     id="rect4" /><g
     id="g11"
     inkscape:label="Aero Club Text"><path
       d="M251.023,306.361l15.033,-32.45l2.658,0l14.896,32.45l-8.387,0l-1.788,-3.896l-12.146,0l-1.787,3.896l-8.479,0Zm12.971,-10.129l6.691,0l-3.346,-7.883l-3.345,7.883Z"
       style="fill:#15345b;fill-rule:nonzero;"
       id="path4" /><path
       d="M307.252,299.67l0,6.416l-21.129,0l-0,-32.175l20.762,0l0,6.417l-13.2,-0l0,6.325l10.909,-0l-0,6.417l-10.909,-0l0,6.6l13.567,-0Z"
       style="fill:#15345b;fill-rule:nonzero;"
       id="path5" /><path
       d="M333.272,284.59c0,1.009 -0.131,1.971 -0.393,2.888c-0.262,0.917 -0.614,1.757 -1.056,2.521c-0.442,0.764 -0.932,1.443 -1.47,2.039c-0.539,0.596 -1.098,1.077 -1.678,1.444l6.917,12.604l-8.283,0l-5.26,-10.45c-0.497,0.061 -1.001,0.092 -1.511,0.092l-1.595,-0l0,10.358l-6.833,0l-0,-31.854c3.617,-0.672 6.757,-0.901 9.421,-0.687c2.665,0.213 4.867,0.802 6.606,1.764c1.739,0.963 3.03,2.238 3.872,3.827c0.842,1.589 1.263,3.407 1.263,5.454Zm-14.329,4.584c1.353,0.122 2.492,0.091 3.417,-0.092c0.925,-0.183 1.677,-0.489 2.257,-0.917c0.58,-0.427 0.994,-0.955 1.242,-1.581c0.249,-0.626 0.373,-1.337 0.373,-2.131c0,-0.672 -0.152,-1.299 -0.456,-1.879c-0.303,-0.581 -0.752,-1.054 -1.346,-1.421c-0.593,-0.367 -1.345,-0.611 -2.257,-0.733c-0.911,-0.123 -1.987,-0.092 -3.23,0.091l0,8.663Z"
       style="fill:#15345b;fill-rule:nonzero;"
       id="path6" /><path
       d="M335.592,290.169c-0,-2.292 0.42,-4.446 1.26,-6.462c0.84,-2.017 2.017,-3.789 3.529,-5.317c1.513,-1.528 3.331,-2.735 5.454,-3.621c2.124,-0.886 4.454,-1.329 6.99,-1.329c2.536,-0 4.858,0.443 6.967,1.329c2.108,0.886 3.926,2.093 5.454,3.621c1.528,1.528 2.719,3.3 3.575,5.317c0.855,2.016 1.283,4.17 1.283,6.462c0,2.261 -0.428,4.408 -1.283,6.44c-0.856,2.032 -2.047,3.812 -3.575,5.339c-1.528,1.528 -3.346,2.735 -5.454,3.621c-2.109,0.886 -4.431,1.329 -6.967,1.329c-2.536,0 -4.866,-0.443 -6.99,-1.329c-2.123,-0.886 -3.941,-2.093 -5.454,-3.621c-1.512,-1.527 -2.689,-3.307 -3.529,-5.339c-0.84,-2.032 -1.26,-4.179 -1.26,-6.44Zm8.112,0c0,1.558 0.252,2.949 0.756,4.171c0.505,1.222 1.184,2.246 2.04,3.071c0.856,0.825 1.833,1.459 2.933,1.902c1.1,0.443 2.231,0.664 3.392,0.664c1.161,0 2.292,-0.221 3.392,-0.664c1.1,-0.443 2.077,-1.077 2.933,-1.902c0.856,-0.825 1.543,-1.849 2.063,-3.071c0.519,-1.222 0.779,-2.613 0.779,-4.171c-0,-1.558 -0.26,-2.956 -0.779,-4.194c-0.52,-1.237 -1.207,-2.276 -2.063,-3.116c-0.856,-0.841 -1.833,-1.49 -2.933,-1.948c-1.1,-0.459 -2.231,-0.688 -3.392,-0.688c-1.161,0 -2.292,0.229 -3.392,0.688c-1.1,0.458 -2.077,1.107 -2.933,1.948c-0.856,0.84 -1.535,1.879 -2.04,3.116c-0.504,1.238 -0.756,2.636 -0.756,4.194Z"
       style="fill:#15345b;fill-rule:nonzero;"
       id="path7" /><path
       d="M413.538,301.006c-0.459,0.519 -1.047,1.1 -1.765,1.741c-0.718,0.642 -1.596,1.238 -2.635,1.788c-1.039,0.55 -2.261,1.016 -3.667,1.398c-1.405,0.382 -2.994,0.573 -4.767,0.573c-2.352,-0 -4.56,-0.42 -6.622,-1.261c-2.063,-0.84 -3.866,-2.009 -5.409,-3.506c-1.543,-1.497 -2.757,-3.277 -3.644,-5.339c-0.886,-2.063 -1.329,-4.316 -1.329,-6.761c0,-2.536 0.489,-4.828 1.467,-6.875c0.978,-2.047 2.269,-3.789 3.873,-5.225c1.604,-1.436 3.445,-2.544 5.523,-3.323c2.078,-0.779 4.216,-1.169 6.416,-1.169c1.712,0 3.247,0.176 4.607,0.528c1.359,0.351 2.551,0.779 3.575,1.283c1.023,0.504 1.894,1.039 2.612,1.604c0.718,0.565 1.306,1.077 1.765,1.535l-4.629,5.455c-0.214,-0.214 -0.535,-0.527 -0.963,-0.94c-0.428,-0.412 -0.97,-0.817 -1.627,-1.215c-0.657,-0.397 -1.421,-0.741 -2.292,-1.031c-0.87,-0.29 -1.841,-0.435 -2.91,-0.435c-1.344,-0 -2.59,0.26 -3.735,0.779c-1.146,0.519 -2.132,1.222 -2.957,2.108c-0.825,0.886 -1.466,1.918 -1.925,3.094c-0.458,1.176 -0.687,2.437 -0.687,3.781c-0,1.284 0.198,2.529 0.596,3.736c0.397,1.207 0.993,2.276 1.787,3.208c0.795,0.932 1.78,1.673 2.956,2.223c1.177,0.55 2.544,0.825 4.102,0.825c0.887,-0 1.742,-0.122 2.567,-0.367c0.825,-0.244 1.566,-0.542 2.223,-0.893c0.657,-0.352 1.238,-0.726 1.742,-1.123c0.504,-0.398 0.878,-0.764 1.123,-1.1l4.629,4.904Z"
       style="fill:#15345b;fill-rule:nonzero;"
       id="path8" /><path
       d="M436.99,306.257l-19.891,-0l-0,-32.175l7.562,-0l0,25.758l12.329,-0l0,6.417Z"
       style="fill:#15345b;fill-rule:nonzero;"
       id="path9" /><path
       d="M438.223,274.082l7.563,-0l-0,19.479c-0,0.978 0.152,1.871 0.458,2.681c0.306,0.81 0.726,1.505 1.26,2.085c0.535,0.581 1.162,1.032 1.88,1.353c0.718,0.32 1.489,0.481 2.314,0.481c0.825,-0 1.589,-0.161 2.292,-0.481c0.703,-0.321 1.321,-0.772 1.856,-1.353c0.535,-0.58 0.955,-1.275 1.26,-2.085c0.306,-0.81 0.459,-1.703 0.459,-2.681l-0,-19.479l7.562,-0l0,19.57c0,1.742 -0.282,3.415 -0.848,5.019c-0.565,1.604 -1.405,3.018 -2.52,4.24c-1.116,1.222 -2.521,2.192 -4.217,2.91c-1.696,0.718 -3.659,1.077 -5.89,1.077c-2.23,0 -4.186,-0.359 -5.866,-1.077c-1.681,-0.718 -3.079,-1.688 -4.194,-2.91c-1.115,-1.222 -1.956,-2.636 -2.521,-4.24c-0.565,-1.604 -0.848,-3.277 -0.848,-5.019l0,-19.57Z"
       style="fill:#15345b;fill-rule:nonzero;"
       id="path10" /><path
       d="M469.565,274.492c1.453,-0.275 2.984,-0.489 4.591,-0.641c1.607,-0.153 3.186,-0.199 4.737,-0.138c1.551,0.061 3.032,0.267 4.444,0.619c1.411,0.351 2.655,0.878 3.731,1.581c1.076,0.703 1.928,1.627 2.557,2.773c0.629,1.146 0.943,2.559 0.943,4.24c0,0.916 -0.133,1.749 -0.398,2.497c-0.266,0.749 -0.573,1.398 -0.922,1.948c-0.35,0.55 -0.72,1.001 -1.111,1.352c-0.392,0.352 -0.713,0.619 -0.965,0.803c0.392,0.061 0.874,0.252 1.447,0.572c0.573,0.321 1.132,0.78 1.677,1.375c0.545,0.596 1.013,1.33 1.404,2.2c0.391,0.871 0.587,1.887 0.587,3.048c-0,1.009 -0.133,1.994 -0.398,2.957c-0.266,0.962 -0.727,1.856 -1.384,2.681c-0.656,0.825 -1.537,1.558 -2.641,2.2c-1.104,0.642 -2.494,1.138 -4.171,1.489c-1.677,0.352 -3.682,0.55 -6.016,0.596c-2.334,0.046 -5.038,-0.13 -8.112,-0.527l0,-31.625Zm6.959,12.604l5.576,0c0.391,-0.275 0.741,-0.687 1.048,-1.237c0.307,-0.55 0.461,-1.176 0.461,-1.879c0,-0.917 -0.217,-1.643 -0.65,-2.177c-0.433,-0.535 -0.999,-0.925 -1.698,-1.169c-0.698,-0.245 -1.467,-0.367 -2.305,-0.367c-0.839,0 -1.649,0.061 -2.432,0.184l0,6.645Zm0,12.605c1.062,0.122 2.11,0.168 3.144,0.137c1.034,-0.03 1.957,-0.176 2.767,-0.435c0.811,-0.26 1.461,-0.657 1.95,-1.192c0.489,-0.535 0.733,-1.245 0.733,-2.131c0,-0.55 -0.077,-1.009 -0.23,-1.375c-0.154,-0.367 -0.343,-0.672 -0.566,-0.917c-0.224,-0.244 -0.461,-0.435 -0.713,-0.573c-0.251,-0.137 -0.461,-0.237 -0.629,-0.298l-6.456,0l0,6.784Z"
       style="fill:#15345b;fill-rule:nonzero;"
       id="path11" /></g><g
     id="g18"
     inkscape:label="Bristol Text"><path
       d="M271.19,81.536c1.141,-1.497 2.401,-3.008 3.781,-4.532c1.38,-1.525 2.817,-2.933 4.312,-4.224c1.495,-1.292 3.038,-2.397 4.63,-3.316c1.592,-0.92 3.165,-1.542 4.719,-1.867c1.554,-0.325 3.072,-0.265 4.556,0.18c1.483,0.446 2.883,1.395 4.198,2.847c0.717,0.792 1.245,1.627 1.583,2.504c0.339,0.877 0.56,1.704 0.665,2.482c0.104,0.778 0.111,1.489 0.021,2.132c-0.09,0.642 -0.18,1.152 -0.272,1.528c0.413,-0.286 1.013,-0.539 1.798,-0.758c0.786,-0.219 1.666,-0.307 2.641,-0.265c0.975,0.043 1.985,0.271 3.032,0.684c1.047,0.414 2.024,1.122 2.933,2.126c0.789,0.871 1.437,1.838 1.942,2.9c0.506,1.062 0.775,2.234 0.808,3.516c0.033,1.282 -0.214,2.679 -0.742,4.19c-0.528,1.511 -1.436,3.145 -2.726,4.902c-1.289,1.756 -3.005,3.666 -5.146,5.728c-2.142,2.062 -4.802,4.253 -7.981,6.574l-24.752,-27.331Zm16.358,4.862l5.202,-4.831c0.15,-0.577 0.153,-1.236 0.009,-1.978c-0.144,-0.742 -0.49,-1.416 -1.041,-2.024c-0.717,-0.792 -1.487,-1.231 -2.31,-1.318c-0.822,-0.087 -1.655,0.067 -2.498,0.461c-0.844,0.394 -1.656,0.955 -2.439,1.681c-0.782,0.727 -1.49,1.482 -2.125,2.266l5.202,5.743Zm9.865,10.893c1.086,-0.815 2.1,-1.683 3.041,-2.606c0.941,-0.922 1.687,-1.847 2.24,-2.774c0.553,-0.927 0.849,-1.833 0.886,-2.719c0.038,-0.886 -0.29,-1.712 -0.983,-2.478c-0.431,-0.475 -0.861,-0.804 -1.292,-0.988c-0.43,-0.184 -0.845,-0.284 -1.245,-0.302c-0.4,-0.017 -0.771,0.024 -1.113,0.123c-0.343,0.099 -0.616,0.195 -0.82,0.287l-6.023,5.595l5.309,5.862Z"
       style="fill:#15345b;fill-rule:nonzero;"
       id="path12" /><path
       d="M331.292,54.595c0.524,1.069 0.868,2.164 1.032,3.285c0.165,1.12 0.183,2.211 0.055,3.272c-0.128,1.06 -0.356,2.059 -0.686,2.997c-0.329,0.937 -0.743,1.765 -1.241,2.483l14.746,9.434l-9.827,4.704l-11.663,-8.091c-0.558,0.347 -1.139,0.665 -1.745,0.955c-0.606,0.29 -1.237,0.592 -1.892,0.906l5.375,10.981l-8.108,3.88l-16.529,-33.769c3.942,-2.767 7.55,-4.793 10.822,-6.079c3.272,-1.287 6.189,-1.914 8.753,-1.881c2.563,0.033 4.756,0.652 6.58,1.858c1.823,1.206 3.266,2.895 4.328,5.065Zm-14.622,12.996c1.668,-0.638 3.004,-1.317 4.006,-2.037c1.002,-0.72 1.736,-1.471 2.202,-2.254c0.466,-0.782 0.684,-1.576 0.654,-2.382c-0.03,-0.805 -0.252,-1.628 -0.664,-2.471c-0.349,-0.712 -0.854,-1.29 -1.516,-1.733c-0.661,-0.443 -1.439,-0.69 -2.334,-0.742c-0.894,-0.052 -1.914,0.117 -3.058,0.504c-1.145,0.388 -2.406,1.032 -3.785,1.932l4.495,9.183Z"
       style="fill:#15345b;fill-rule:nonzero;"
       id="path13" /><path
       d="M340.473,39.15l7.956,-1.965l7.516,36.655l-7.956,1.965l-7.516,-36.655Z"
       style="fill:#15345b;fill-rule:nonzero;"
       id="path14" /><path
       d="M380.918,43.859c-0.551,-0.293 -1.159,-0.582 -1.826,-0.867c-0.667,-0.285 -1.348,-0.523 -2.043,-0.715c-0.695,-0.192 -1.388,-0.347 -2.08,-0.466c-0.691,-0.119 -1.336,-0.159 -1.935,-0.119c-1.397,0.092 -2.572,0.435 -3.524,1.028c-0.953,0.593 -1.4,1.418 -1.342,2.474c0.058,1.057 0.664,1.894 1.816,2.513c1.153,0.618 2.649,1.251 4.488,1.897c2.215,0.805 4.04,1.662 5.476,2.573c1.436,0.911 2.566,1.878 3.391,2.903c0.824,1.024 1.408,2.073 1.751,3.147c0.343,1.075 0.529,2.177 0.558,3.309c0.063,1.751 -0.225,3.342 -0.864,4.774c-0.639,1.432 -1.532,2.66 -2.677,3.687c-1.146,1.026 -2.504,1.838 -4.074,2.435c-1.57,0.597 -3.253,0.955 -5.05,1.074c-1.264,0.083 -2.512,0.01 -3.744,-0.219c-1.231,-0.23 -2.392,-0.528 -3.48,-0.895c-1.089,-0.367 -2.081,-0.795 -2.976,-1.284c-0.896,-0.489 -1.64,-0.97 -2.234,-1.443l2.613,-7.138c0.521,0.368 1.125,0.73 1.813,1.087c0.687,0.357 1.415,0.692 2.184,1.007c0.769,0.315 1.567,0.555 2.394,0.72c0.827,0.165 1.64,0.221 2.439,0.168c0.598,-0.04 1.22,-0.126 1.864,-0.26c0.643,-0.134 1.234,-0.328 1.771,-0.583c0.537,-0.255 0.969,-0.585 1.298,-0.991c0.328,-0.406 0.475,-0.918 0.441,-1.537c-0.036,-0.656 -0.309,-1.214 -0.818,-1.674c-0.51,-0.46 -1.167,-0.874 -1.972,-1.241c-0.805,-0.367 -1.685,-0.721 -2.638,-1.06c-0.954,-0.339 -1.893,-0.716 -2.818,-1.13c-2.669,-1.177 -4.837,-2.643 -6.503,-4.397c-1.666,-1.755 -2.577,-4.053 -2.734,-6.895c-0.08,-1.457 0.125,-2.888 0.615,-4.291c0.491,-1.404 1.248,-2.669 2.271,-3.797c1.023,-1.128 2.299,-2.063 3.828,-2.803c1.528,-0.741 3.274,-1.176 5.237,-1.306c1.098,-0.072 2.228,-0.019 3.39,0.16c1.162,0.179 2.252,0.418 3.271,0.717c1.018,0.298 1.936,0.603 2.755,0.915c0.819,0.311 1.451,0.58 1.898,0.807l-2.23,7.716Z"
       style="fill:#15345b;fill-rule:nonzero;"
       id="path15" /><path
       d="M414.947,47.857l-9.282,-2.015l-5.7,29.963l-8.234,-1.787l5.699,-29.964l-9.232,-2.005l1.42,-7.464l26.749,5.808l-1.42,7.464Z"
       style="fill:#15345b;fill-rule:nonzero;"
       id="path16" /><path
       d="M413.146,57.159c1.362,-2.367 3.077,-4.343 5.143,-5.927c2.067,-1.584 4.335,-2.716 6.806,-3.395c2.47,-0.679 5.066,-0.846 7.786,-0.499c2.721,0.347 5.391,1.274 8.011,2.781c2.62,1.507 4.756,3.345 6.407,5.513c1.652,2.169 2.812,4.496 3.483,6.982c0.67,2.487 0.848,5.026 0.533,7.618c-0.315,2.591 -1.153,5.071 -2.515,7.438c-1.344,2.336 -3.061,4.3 -5.153,5.89c-2.091,1.591 -4.38,2.721 -6.866,3.392c-2.487,0.67 -5.082,0.836 -7.787,0.499c-2.705,-0.338 -5.367,-1.26 -7.987,-2.768c-2.62,-1.507 -4.763,-3.349 -6.431,-5.527c-1.667,-2.177 -2.828,-4.505 -3.482,-6.982c-0.655,-2.477 -0.812,-5.015 -0.473,-7.613c0.34,-2.599 1.182,-5.066 2.525,-7.402Zm8.381,4.821c-0.926,1.61 -1.492,3.196 -1.697,4.759c-0.206,1.562 -0.112,3.023 0.282,4.384c0.393,1.361 1.026,2.597 1.899,3.709c0.874,1.111 1.91,2.012 3.109,2.702c1.2,0.69 2.499,1.133 3.899,1.329c1.4,0.196 2.787,0.122 4.161,-0.222c1.374,-0.343 2.693,-0.992 3.956,-1.946c1.263,-0.954 2.357,-2.236 3.283,-3.846c0.927,-1.61 1.489,-3.208 1.688,-4.795c0.199,-1.588 0.106,-3.069 -0.279,-4.446c-0.384,-1.376 -1.008,-2.628 -1.872,-3.756c-0.864,-1.127 -1.896,-2.036 -3.095,-2.726c-1.2,-0.69 -2.504,-1.125 -3.913,-1.305c-1.409,-0.18 -2.805,-0.091 -4.188,0.269c-1.383,0.36 -2.703,1.029 -3.959,2.007c-1.256,0.979 -2.348,2.274 -3.274,3.883Z"
       style="fill:#15345b;fill-rule:nonzero;"
       id="path17" /><path
       d="M455.396,112.311l-15.399,-17.815l27.649,-25.96l5.854,6.773l-22.135,20.783l9.545,11.042l-5.514,5.177Z"
       style="fill:#15345b;fill-rule:nonzero;"
       id="path18" /></g><g
     id="g1"
     inkscape:label="Blue Circle"
     style="display:inline"><circle
       cx="371.25"
       cy="174.379"
       r="63.528999"
       style="fill:#ebebeb;fill-opacity:0;stroke:#15345b;stroke-width:8.33px"
       id="circle18" /><path
       d="m 416.941,234.043 c 18.531,-14.181 29.401,-36.184 29.401,-59.519 0,-41.365 -33.583,-74.947 -74.947,-74.947 -41.364,0 -74.947,33.582 -74.947,74.947 0,23.211 10.755,45.113 29.122,59.305 l 2.593,-3.356 c -17.328,-13.389 -27.474,-34.051 -27.474,-55.949 0,-39.024 31.682,-70.706 70.706,-70.706 39.023,0 70.705,31.682 70.705,70.706 0,22.014 -10.254,42.773 -27.737,56.151 z"
       style="fill:#15345b"
       id="path19" /></g><g
     id="g25"
     inkscape:label="Red Banner"
     style="display:inline"><rect
       x="330.00101"
       y="223.49899"
       width="82.498001"
       height="27.000999"
       style="fill:#9f3439"
       id="rect19" /><path
       d="M 304.49,229.508 H 328.5 V 242.89 H 317.392 Z"
       style="fill:#9f3439"
       id="path20" /><path
       d="M 330.064,257.974 H 304.49 l 12.902,-15.084 h 9.429 z"
       style="fill:#9f3439"
       id="path21" /><rect
       x="326.496"
       y="241.394"
       width="2.003"
       height="11.28"
       style="fill:#9f3439"
       id="rect21" /><path
       d="m 335.957,257.974 h -11.77 l 2.942,-7.542 h 1.286 z"
       style="fill:#9f3439"
       id="path22" /><path
       d="m 437.928,229.508 h -23.925 v 13.382 h 11.069 z"
       style="fill:#9f3439"
       id="path23" /><path
       d="m 412.355,257.974 h 25.573 L 425.074,242.89 h -9.476 z"
       style="fill:#9f3439"
       id="path24" /><rect
       x="414.00299"
       y="239.15199"
       width="2.003"
       height="11.28"
       style="fill:#9f3439"
       id="rect24" /><path
       d="m 406.47,257.974 h 11.77 l -2.943,-7.542 h -1.285 z"
       style="fill:#9f3439"
       id="path25" /></g><g
     id="g54"
     inkscape:label="LeftWing"
     style="display:inline"><rect
       x="34.918999"
       y="102.009"
       width="214.048"
       height="4.4850001"
       style="fill:#15345b"
       id="rect25" /><rect
       x="77.291"
       y="136.5"
       width="146.285"
       height="4.5"
       style="fill:#15345b"
       id="rect27" /><rect
       x="136.394"
       y="172.5"
       width="130.595"
       height="4.5"
       style="fill:#15345b"
       id="rect29" /><rect
       x="199.49001"
       y="207.00101"
       width="108.013"
       height="4.5"
       style="fill:#15345b"
       id="rect31" /><path
       d="M 268.536,172.965 C 262.21,151.238 243.87,136.5 223.158,136.5 v 4.498 c 18.937,0 35.706,13.475 41.49,33.341 z"
       style="fill:#15345b"
       id="path32" /><path
       d="m 264.018,171.689 c 6.499,14.658 21.685,24.198 38.517,24.198 v -3.727 c -15.24,0 -28.99,-8.639 -34.874,-21.91 z"
       style="fill:#15345b"
       id="path35" /><path
       d="m 292.988,147.826 c -2.856,-26.197 -21.793,-45.817 -44.222,-45.817 v 4.498 c 20.508,0 37.822,17.939 40.433,41.891 z"
       style="fill:#15345b"
       id="path37" /><path
       d="m 289.205,148.402 c 1.537,7.151 4.937,12.766 9.25,15.28 l 1.254,-5.936 c -3.235,-1.886 -5.784,-6.098 -6.938,-11.461 z"
       style="fill:#15345b"
       id="path38" /><path
       d="m 34.496,102.009 c 0,20.703 19.11,37.807 43.556,38.986 l 0.302,-4.471 C 56.711,135.481 39.792,120.338 39.792,102.009 Z"
       style="fill:#15345b"
       id="path40" /><path
       d="m 76.106,137.254 c 0,21.229 26.577,38.722 60.401,39.755 l 0.35,-4.505 c -29.991,-0.916 -53.556,-16.427 -53.556,-35.25 z"
       style="fill:#15345b"
       id="path42" /><path
       d="m 139.588,173.681 c 1.59,20.46 27.69,36.823 60.326,37.82 l 0.35,-4.506 c -28.937,-0.883 -52.08,-15.392 -53.489,-33.533 z"
       style="fill:#15345b"
       id="path44" /></g><g
     id="g55"
     inkscape:label="RightWing"
     style="display:inline"><rect
       x="494.82401"
       y="102.009"
       width="212.65601"
       height="4.4850001"
       style="fill:#15345b"
       id="rect26" /><rect
       x="519.245"
       y="136.5"
       width="145.215"
       height="4.5"
       style="fill:#15345b"
       id="rect28" /><rect
       x="475.483"
       y="172.5"
       width="132.04401"
       height="4.5"
       style="fill:#15345b"
       id="rect30" /><rect
       x="435.00299"
       y="207.00101"
       width="109.51"
       height="4.5"
       style="fill:#15345b"
       id="rect32" /><path
       d="m 473.867,172.965 c 6.326,-21.727 24.667,-36.465 45.378,-36.465 v 4.498 c -18.937,0 -35.706,13.475 -41.49,33.341 z"
       style="fill:#15345b"
       id="path33" /><path
       d="m 478.43,171.689 c -6.499,14.658 -21.685,24.198 -38.517,24.198 v -3.727 c 15.24,0 28.99,-8.639 34.875,-21.91 z"
       style="fill:#15345b"
       id="path34" /><path
       d="m 450.805,147.843 c 2.846,-26.204 21.766,-45.834 44.177,-45.834 v 4.498 c -20.491,0 -37.79,17.948 -40.392,41.907 z"
       style="fill:#15345b"
       id="path36" /><path
       d="m 454.59,148.402 c -1.538,7.151 -4.937,12.766 -9.25,15.28 l -1.254,-5.936 c 3.235,-1.886 5.784,-6.098 6.938,-11.461 z"
       style="fill:#15345b"
       id="path39" /><path
       d="m 708,102.014 c 0,20.703 -19.11,37.807 -43.557,38.986 l -0.301,-4.47 c 21.643,-1.044 38.562,-16.187 38.562,-34.516 z"
       style="fill:#15345b"
       id="path41" /><path
       d="m 667.827,137.245 c 0,21.23 -26.577,38.723 -60.4,39.755 l -0.35,-4.505 c 29.99,-0.916 53.556,-16.426 53.556,-35.25 z"
       style="fill:#15345b"
       id="path43" /><path
       d="m 604.515,173.681 c -1.589,20.46 -27.689,36.823 -60.325,37.82 l -0.35,-4.506 c 28.937,-0.883 52.08,-15.392 53.489,-33.533 z"
       style="fill:#15345b"
       id="path45" /></g><g
     id="g49"
     inkscape:label="Est Text"><path
       d="M343.259,239.712l-0,1.75l-5.014,-0l0,-8.775l4.927,-0l-0,1.75l-3.132,-0l-0,1.725l2.588,-0l-0,1.75l-2.588,-0l-0,1.8l3.219,-0Z"
       style="fill:#fff;fill-rule:nonzero;"
       id="path46" /><path
       d="M349.022,234.999c-0.116,-0.075 -0.244,-0.15 -0.386,-0.225c-0.141,-0.075 -0.286,-0.139 -0.435,-0.193c-0.148,-0.054 -0.297,-0.1 -0.446,-0.138c-0.148,-0.037 -0.288,-0.056 -0.418,-0.056c-0.305,-0 -0.564,0.06 -0.778,0.181c-0.214,0.121 -0.321,0.302 -0.321,0.544c0,0.242 0.122,0.442 0.365,0.6c0.243,0.158 0.56,0.325 0.951,0.5c0.472,0.217 0.858,0.44 1.158,0.669c0.301,0.229 0.535,0.466 0.702,0.712c0.167,0.246 0.281,0.494 0.342,0.744c0.062,0.25 0.089,0.504 0.082,0.762c-0.007,0.4 -0.089,0.759 -0.245,1.075c-0.156,0.317 -0.364,0.584 -0.625,0.8c-0.261,0.217 -0.565,0.382 -0.913,0.494c-0.348,0.113 -0.718,0.169 -1.11,0.169c-0.275,-0 -0.545,-0.035 -0.81,-0.106c-0.265,-0.071 -0.513,-0.157 -0.745,-0.257c-0.232,-0.1 -0.442,-0.212 -0.631,-0.337c-0.188,-0.125 -0.344,-0.246 -0.467,-0.363l0.652,-1.587c0.109,0.092 0.236,0.183 0.381,0.275c0.145,0.092 0.299,0.179 0.462,0.262c0.163,0.084 0.334,0.15 0.511,0.2c0.178,0.05 0.354,0.075 0.528,0.075c0.13,0 0.266,-0.01 0.407,-0.031c0.142,-0.021 0.272,-0.056 0.392,-0.106c0.12,-0.05 0.217,-0.119 0.294,-0.206c0.076,-0.088 0.114,-0.202 0.114,-0.344c-0,-0.15 -0.053,-0.281 -0.158,-0.394c-0.105,-0.112 -0.243,-0.216 -0.413,-0.312c-0.171,-0.096 -0.357,-0.19 -0.56,-0.282c-0.203,-0.091 -0.403,-0.191 -0.598,-0.3c-0.566,-0.308 -1.019,-0.675 -1.36,-1.1c-0.34,-0.425 -0.511,-0.962 -0.511,-1.612c0,-0.333 0.062,-0.656 0.185,-0.969c0.123,-0.312 0.303,-0.589 0.538,-0.831c0.236,-0.242 0.524,-0.435 0.865,-0.581c0.341,-0.146 0.725,-0.219 1.153,-0.219c0.239,-0 0.484,0.029 0.734,0.087c0.25,0.059 0.484,0.13 0.701,0.213c0.218,0.083 0.413,0.167 0.587,0.25c0.174,0.083 0.309,0.154 0.403,0.212l-0.577,1.725Z"
       style="fill:#fff;fill-rule:nonzero;"
       id="path47" /><path
       d="M356.494,234.437l-2.023,-0l-0,7.025l-1.795,-0l0,-7.025l-2.011,-0l-0,-1.75l5.829,-0l-0,1.75Z"
       style="fill:#fff;fill-rule:nonzero;"
       id="path48" /><path
       d="M356.581,240.399c0,-0.158 0.027,-0.31 0.082,-0.456c0.054,-0.146 0.128,-0.273 0.223,-0.381c0.094,-0.108 0.204,-0.194 0.331,-0.256c0.127,-0.063 0.259,-0.094 0.397,-0.094c0.145,-0 0.281,0.031 0.408,0.094c0.127,0.062 0.237,0.148 0.332,0.256c0.094,0.108 0.168,0.235 0.223,0.381c0.054,0.146 0.081,0.298 0.081,0.456c0,0.35 -0.101,0.636 -0.304,0.857c-0.203,0.221 -0.45,0.331 -0.74,0.331c-0.138,-0 -0.27,-0.029 -0.397,-0.088c-0.127,-0.058 -0.237,-0.141 -0.331,-0.25c-0.095,-0.108 -0.169,-0.233 -0.223,-0.375c-0.055,-0.141 -0.082,-0.3 -0.082,-0.475Z"
       style="fill:#fff;fill-rule:nonzero;"
       id="path49" /></g><g
     id="g53"
     inkscape:label="1994 Text"><path
       d="M367.965,234.763l-1.45,0.812l-1.069,-2.667l4.984,-2.833l0.453,0l0,13.708l-2.918,0l0,-9.02Z"
       style="fill:#fff;fill-rule:nonzero;"
       id="path50" /><path
       d="M377.735,229.95c0.725,0 1.38,0.146 1.966,0.438c0.586,0.291 1.082,0.69 1.486,1.197c0.405,0.507 0.719,1.105 0.943,1.792c0.223,0.688 0.335,1.427 0.335,2.219c0,1.472 -0.251,2.736 -0.752,3.792c-0.502,1.055 -1.13,1.923 -1.885,2.604c-0.755,0.68 -1.577,1.191 -2.465,1.531c-0.888,0.34 -1.719,0.524 -2.492,0.552l-0.508,-2.521l0.236,-0.354c1.281,-0.139 2.329,-0.524 3.145,-1.156c0.815,-0.632 1.344,-1.386 1.586,-2.261c-0.327,0.403 -0.722,0.684 -1.188,0.844c-0.465,0.16 -0.927,0.24 -1.386,0.24c-0.496,-0 -0.958,-0.111 -1.387,-0.334c-0.429,-0.222 -0.8,-0.527 -1.114,-0.916c-0.315,-0.389 -0.562,-0.834 -0.744,-1.334c-0.181,-0.5 -0.271,-1.034 -0.271,-1.604c-0,-0.583 0.099,-1.156 0.299,-1.719c0.199,-0.562 0.489,-1.069 0.87,-1.52c0.38,-0.452 0.848,-0.813 1.404,-1.084c0.556,-0.271 1.197,-0.406 1.922,-0.406Zm0.054,2.75c-0.447,0 -0.828,0.17 -1.142,0.51c-0.314,0.341 -0.471,0.775 -0.471,1.303c-0,0.277 0.045,0.527 0.136,0.75c0.09,0.222 0.214,0.416 0.371,0.583c0.157,0.167 0.333,0.295 0.526,0.385c0.193,0.091 0.399,0.136 0.616,0.136c0.218,-0 0.426,-0.045 0.625,-0.136c0.2,-0.09 0.372,-0.218 0.517,-0.385c0.145,-0.167 0.26,-0.365 0.344,-0.594c0.085,-0.229 0.127,-0.476 0.127,-0.739c0,-0.264 -0.045,-0.507 -0.136,-0.73c-0.09,-0.222 -0.214,-0.413 -0.371,-0.573c-0.157,-0.159 -0.333,-0.284 -0.526,-0.375c-0.193,-0.09 -0.399,-0.135 -0.616,-0.135Z"
       style="fill:#fff;fill-rule:nonzero;"
       id="path51" /><path
       d="M388.229,229.95c0.725,0 1.38,0.146 1.966,0.438c0.586,0.291 1.082,0.69 1.487,1.197c0.404,0.507 0.719,1.105 0.942,1.792c0.224,0.688 0.336,1.427 0.336,2.219c-0,1.472 -0.251,2.736 -0.753,3.792c-0.501,1.055 -1.129,1.923 -1.885,2.604c-0.755,0.68 -1.577,1.191 -2.465,1.531c-0.888,0.34 -1.719,0.524 -2.492,0.552l-0.507,-2.521l0.235,-0.354c1.281,-0.139 2.329,-0.524 3.145,-1.156c0.816,-0.632 1.344,-1.386 1.586,-2.261c-0.326,0.403 -0.722,0.684 -1.187,0.844c-0.466,0.16 -0.928,0.24 -1.387,0.24c-0.495,-0 -0.957,-0.111 -1.386,-0.334c-0.429,-0.222 -0.801,-0.527 -1.115,-0.916c-0.314,-0.389 -0.562,-0.834 -0.743,-1.334c-0.181,-0.5 -0.272,-1.034 -0.272,-1.604c-0,-0.583 0.1,-1.156 0.299,-1.719c0.199,-0.562 0.489,-1.069 0.87,-1.52c0.381,-0.452 0.849,-0.813 1.405,-1.084c0.555,-0.271 1.196,-0.406 1.921,-0.406Zm0.054,2.75c-0.447,0 -0.827,0.17 -1.142,0.51c-0.314,0.341 -0.471,0.775 -0.471,1.303c0,0.277 0.045,0.527 0.136,0.75c0.091,0.222 0.215,0.416 0.372,0.583c0.157,0.167 0.332,0.295 0.525,0.385c0.194,0.091 0.399,0.136 0.617,0.136c0.217,-0 0.425,-0.045 0.625,-0.136c0.199,-0.09 0.371,-0.218 0.516,-0.385c0.145,-0.167 0.26,-0.365 0.345,-0.594c0.084,-0.229 0.127,-0.476 0.127,-0.739c-0,-0.264 -0.046,-0.507 -0.136,-0.73c-0.091,-0.222 -0.215,-0.413 -0.372,-0.573c-0.157,-0.159 -0.332,-0.284 -0.525,-0.375c-0.194,-0.09 -0.399,-0.135 -0.617,-0.135Z"
       style="fill:#fff;fill-rule:nonzero;"
       id="path52" /><path
       d="M402.783,230.346l0,9.167l1.613,-0l0,2.625l-1.613,-0l0,1.645l-2.99,0l-0,-1.645l-5.692,-0l-0.507,-0.792l8.301,-11.271l0.888,0.271Zm-2.99,9.167l-0.018,-2.521l-1.795,2.521l1.813,-0Z"
       style="fill:#fff;fill-rule:nonzero;"
       id="path53" /></g></svg>
